<svg xmlns="http://www.w3.org/2000/svg" enable-background="new 0 0 24 24" viewBox="0 0 24 24" id="dblp"><polygon fill="#2E7FCA" points="11.969 7.81 11.353 5.53 11.353 5.53 11.969 7.81"></polygon><polygon fill="#2E7FCA" points="12.031 16.19 12.647 18.47 12.647 18.47 12.031 16.19"></polygon><polygon fill="#2E7FCA" points="11.361 13.71 11.361 13.71 12.031 16.19 12.031 16.19"></polygon><polygon fill="#2E7FCA" points="12.639 10.29 12.639 10.29 11.969 7.81 11.969 7.81"></polygon><path fill="#5A7F19" d="M13.514,13.527c0.172,0.636-0.518,1.159-1.084,0.821l-1.07-0.638l0.67,2.48l1.397-0.652c0.323-0.151,0.491-0.512,0.398-0.856l-1.187-4.392l0,0L13.514,13.527z"></path><path fill="#2E7FCA" d="M11.352,5.53l-0.15-0.558c-0.05-0.183-0.168-0.34-0.331-0.438L3.386,0.049C3.127-0.106,2.812,0.132,2.889,0.423l1.926,7.221l5.519-2.588C10.746,4.864,11.234,5.09,11.352,5.53L11.352,5.53z"></path><path fill="#0A4DA5" d="M5.755,10.365l5.605,3.345l-1.187-4.391c-0.093-0.344,0.075-0.706,0.398-0.856l1.397-0.652L11.352,5.53c-0.119-0.44-0.606-0.666-1.019-0.473L4.815,7.645l0.607,2.279C5.471,10.108,5.59,10.267,5.755,10.365L5.755,10.365z"></path><path fill="#286FB0" d="M3.086,0.026c-0.144,0.06-0.245,0.219-0.198,0.398l1.926,7.221l2.84-1.332L3.086,0.026L3.086,0.026z"></path><path fill="#094390" d="M7.655,6.313l-2.84,1.332l0.607,2.279c0.049,0.184,0.168,0.343,0.333,0.441l5.605,3.345l-0.988-3.658L7.655,6.313L7.655,6.313z"></path><path fill="#45681B" d="M11.57,9.652l1.07,0.638l-0.671-2.48l-1.397,0.652c-0.322,0.15-0.49,0.512-0.398,0.856l1.187,4.391l-0.874-3.237C10.314,9.836,11.003,9.314,11.57,9.652L11.57,9.652z"></path><path fill="#FDD700" d="M12.648,18.47l0.15,0.557c0.05,0.184,0.168,0.341,0.331,0.438l7.485,4.486c0.259,0.155,0.574-0.083,0.497-0.375l-1.926-7.222l-5.52,2.588C13.254,19.136,12.766,18.91,12.648,18.47L12.648,18.47z"></path><path fill="#F9BC00" d="M18.245,13.635L12.64,10.29l1.187,4.392c0.093,0.344-0.075,0.706-0.397,0.856l-1.397,0.652l0.616,2.281c0.119,0.44,0.606,0.666,1.018,0.473l5.52-2.588l-0.607-2.279C18.529,13.892,18.41,13.733,18.245,13.635L18.245,13.635z"></path><path fill="#2B5A20" d="M13.514,13.527L12.64,10.29l-1.07-0.638c-0.567-0.338-1.256,0.185-1.083,0.821l0.874,3.237l1.071,0.638C12.997,14.686,13.687,14.164,13.514,13.527L13.514,13.527z"></path><path fill="#3C5B18" d="M10.177,8.924c-0.036,0.125-0.039,0.261-0.004,0.395l1.187,4.391l-0.874-3.237c-0.001-0.005-0.003-0.01-0.004-0.016c-0.077-0.308,0.047-0.588,0.261-0.754L10.177,8.924L10.177,8.924z"></path><path fill="#DCBB00" d="M16.494,17.617l-2.828,1.326l0,0c-0.012,0.006-0.024,0.011-0.037,0.016c0,0-0.001,0-0.001,0.001c-0.083,0.033-0.168,0.05-0.253,0.053c-0.006,0-0.013,0-0.019,0l0,0l0,0c-0.003,0-0.005,0-0.007,0c-0.297-0.003-0.575-0.188-0.682-0.482c-0.005-0.013-0.009-0.026-0.013-0.039c-0.002-0.007-0.004-0.013-0.006-0.02l0.15,0.557c0.05,0.184,0.168,0.341,0.331,0.438l7.485,4.486C20.671,23.985,20.729,24,20.786,24c0.1,0,0.195-0.047,0.258-0.121L16.494,17.617L16.494,17.617z"></path><path fill="#D9A400" d="M13.51,13.51l0.317,1.172c0.093,0.344-0.075,0.706-0.397,0.856l-1.397,0.652l0.616,2.281c0.002,0.007,0.004,0.013,0.006,0.02c0.004,0.013,0.008,0.027,0.013,0.039c0.107,0.295,0.385,0.479,0.682,0.482c0.002,0,0.005,0,0.007,0l0,0c0.006,0,0.013,0,0.019,0c0.084-0.002,0.17-0.019,0.253-0.053c0,0,0.001,0,0.001,0c0.013-0.005,0.025-0.01,0.037-0.016l0,0l2.828-1.326L13.51,13.51L13.51,13.51z"></path><path fill="#254E1C" d="M10.743,9.703c-0.213,0.166-0.338,0.446-0.261,0.754c0.001,0.005,0.003,0.01,0.004,0.016l0.874,3.237l1.071,0.638c0.123,0.073,0.251,0.106,0.376,0.106c0.449,0,0.843-0.428,0.707-0.927l-0.005-0.019L10.743,9.703L10.743,9.703z"></path><path fill="#2E7FCA" d="M5.755,10.365c-0.165-0.098-0.284-0.257-0.333-0.441L4.815,7.645L2.897,8.543C2.576,8.694,2.409,9.053,2.5,9.396l2.439,9.151c0.118,0.441,0.605,0.668,1.018,0.476l6.073-2.833L11.36,13.71L5.755,10.365L5.755,10.365z"></path><path fill="#286FB0" d="M4.815,7.645L2.897,8.543C2.576,8.694,2.409,9.053,2.5,9.396l2.439,9.151c0.089,0.333,0.389,0.545,0.709,0.545c0.103,0,0.208-0.022,0.309-0.069l1.697-0.792v-6.732l-1.9-1.134c-0.165-0.098-0.284-0.257-0.333-0.441L4.815,7.645L4.815,7.645z"></path><path fill="#FDD700" d="M21.5,14.604l-2.439-9.151c-0.118-0.441-0.606-0.669-1.018-0.476l-6.073,2.833l0.671,2.48l5.606,3.345c0.165,0.098,0.284,0.257,0.333,0.441l0.607,2.279l1.917-0.898C21.424,15.306,21.591,14.947,21.5,14.604L21.5,14.604z"></path><polygon fill="#DCBB00" points="16.148 5.861 11.969 7.811 12.64 10.29 16.148 12.384 16.148 5.861"></polygon></svg>